<mxfile host="app.diagrams.net" modified="2023-11-24T10:33:30.949Z" agent="Mozilla/5.0 (Macintosh; Intel Mac OS X 10_15_7) AppleWebKit/537.36 (KHTML, like Gecko) Chrome/119.0.0.0 Safari/537.36" etag="m5tTvY4PatcMPe3-Fp97" version="22.1.3" type="github">
  <diagram id="3228e29e-7158-1315-38df-8450db1d8a1d" name="Page-1">
    <mxGraphModel dx="1735" dy="920" grid="1" gridSize="10" guides="1" tooltips="1" connect="1" arrows="1" fold="1" page="1" pageScale="1" pageWidth="1169" pageHeight="827" background="none" math="0" shadow="0">
      <root>
        <mxCell id="0" />
        <mxCell id="1" parent="0" />
        <mxCell id="qWZZk5YbpGqvu9Xzx68U-21540" value="" style="ellipse;fillColor=#fff2cc;opacity=60;strokeColor=#d6b656;html=1;" vertex="1" parent="1">
          <mxGeometry x="340" y="160" width="1190" height="810" as="geometry" />
        </mxCell>
        <mxCell id="21532" value="" style="ellipse;fillColor=#12AAB5;opacity=60;strokeColor=none;html=1;fontColor=#FFFFFF;" parent="1" vertex="1">
          <mxGeometry x="499.5" y="372.75" width="500" height="411.5" as="geometry" />
        </mxCell>
        <mxCell id="21533" value="" style="ellipse;fillColor=#e85642;opacity=60;strokeColor=none;html=1;fontColor=#FFFFFF;" parent="1" vertex="1">
          <mxGeometry x="809.5" y="372.75" width="500" height="411.5" as="geometry" />
        </mxCell>
        <mxCell id="21534" value="UserWithName" style="text;fontSize=24;align=center;verticalAlign=middle;html=1;fontColor=#FFFFFF;" parent="1" vertex="1">
          <mxGeometry x="619.5" y="538.5" width="190" height="70" as="geometry" />
        </mxCell>
        <mxCell id="21535" value="UserWithEmail" style="text;fontSize=24;align=center;verticalAlign=middle;html=1;fontColor=#FFFFFF;" parent="1" vertex="1">
          <mxGeometry x="1019.5" y="538.5" width="190" height="70" as="geometry" />
        </mxCell>
        <mxCell id="21536" value="Tradition" style="text;fontSize=24;align=center;verticalAlign=middle;html=1;fontColor=#FFFFFF;" parent="1" vertex="1">
          <mxGeometry x="819.5" y="868.5" width="190" height="70" as="geometry" />
        </mxCell>
        <mxCell id="21537" value="UserWithNameEmail" style="text;align=center;html=1;fontColor=#FFFFFF;fontSize=16;" parent="1" vertex="1">
          <mxGeometry x="894.5" y="553.5" width="40" height="40" as="geometry" />
        </mxCell>
        <mxCell id="qWZZk5YbpGqvu9Xzx68U-21542" value="整个类型全集（类型世界）" style="text;fontSize=24;align=center;verticalAlign=middle;html=1;fontColor=#0066CC;" vertex="1" parent="1">
          <mxGeometry x="840" y="210" width="190" height="70" as="geometry" />
        </mxCell>
      </root>
    </mxGraphModel>
  </diagram>
</mxfile>
